<mxfile host="app.diagrams.net" modified="2023-11-06T11:38:08.892Z" agent="Mozilla/5.0 (Macintosh; Intel Mac OS X 10_15_7) AppleWebKit/537.36 (KHTML, like Gecko) Chrome/118.0.0.0 Safari/537.36" etag="uXacnieXcYH6fymjCiE1" version="22.0.8" type="github">
  <diagram name="페이지-1" id="pTJpQZuSNK5bX65GtpPb">
    <mxGraphModel dx="954" dy="545" grid="1" gridSize="10" guides="1" tooltips="1" connect="1" arrows="1" fold="1" page="1" pageScale="1" pageWidth="827" pageHeight="1169" math="0" shadow="0">
      <root>
        <mxCell id="0" />
        <mxCell id="1" parent="0" />
        <mxCell id="VnQOhvCHOg2HLJ8q1UFD-1" value="Actor" style="shape=umlActor;verticalLabelPosition=bottom;verticalAlign=top;html=1;outlineConnect=0;" vertex="1" parent="1">
          <mxGeometry x="123" y="93" width="130" height="319" as="geometry" />
        </mxCell>
        <mxCell id="VnQOhvCHOg2HLJ8q1UFD-4" value="" style="endArrow=classic;html=1;rounded=0;" edge="1" parent="1" source="VnQOhvCHOg2HLJ8q1UFD-1">
          <mxGeometry width="50" height="50" relative="1" as="geometry">
            <mxPoint x="280" y="190" as="sourcePoint" />
            <mxPoint x="480" y="110" as="targetPoint" />
          </mxGeometry>
        </mxCell>
        <mxCell id="VnQOhvCHOg2HLJ8q1UFD-5" value="게시글 생성" style="ellipse;whiteSpace=wrap;html=1;" vertex="1" parent="1">
          <mxGeometry x="500" y="60" width="200" height="80" as="geometry" />
        </mxCell>
        <mxCell id="VnQOhvCHOg2HLJ8q1UFD-6" value="게시글 읽기" style="ellipse;whiteSpace=wrap;html=1;" vertex="1" parent="1">
          <mxGeometry x="490" y="170" width="200" height="80" as="geometry" />
        </mxCell>
        <mxCell id="VnQOhvCHOg2HLJ8q1UFD-7" value="게시글 수정" style="ellipse;whiteSpace=wrap;html=1;" vertex="1" parent="1">
          <mxGeometry x="490" y="290" width="200" height="80" as="geometry" />
        </mxCell>
        <mxCell id="VnQOhvCHOg2HLJ8q1UFD-8" value="게시글 삭제" style="ellipse;whiteSpace=wrap;html=1;" vertex="1" parent="1">
          <mxGeometry x="490" y="412" width="200" height="80" as="geometry" />
        </mxCell>
        <mxCell id="VnQOhvCHOg2HLJ8q1UFD-9" value="" style="endArrow=classic;html=1;rounded=0;entryX=0;entryY=0.5;entryDx=0;entryDy=0;" edge="1" parent="1" source="VnQOhvCHOg2HLJ8q1UFD-1" target="VnQOhvCHOg2HLJ8q1UFD-6">
          <mxGeometry width="50" height="50" relative="1" as="geometry">
            <mxPoint x="320" y="260" as="sourcePoint" />
            <mxPoint x="430" y="260" as="targetPoint" />
          </mxGeometry>
        </mxCell>
        <mxCell id="VnQOhvCHOg2HLJ8q1UFD-10" value="" style="endArrow=classic;html=1;rounded=0;entryX=0;entryY=0.5;entryDx=0;entryDy=0;" edge="1" parent="1" source="VnQOhvCHOg2HLJ8q1UFD-1" target="VnQOhvCHOg2HLJ8q1UFD-7">
          <mxGeometry width="50" height="50" relative="1" as="geometry">
            <mxPoint x="240" y="331" as="sourcePoint" />
            <mxPoint x="467" y="220" as="targetPoint" />
          </mxGeometry>
        </mxCell>
        <mxCell id="VnQOhvCHOg2HLJ8q1UFD-11" value="" style="endArrow=classic;html=1;rounded=0;entryX=0;entryY=0.5;entryDx=0;entryDy=0;" edge="1" parent="1" source="VnQOhvCHOg2HLJ8q1UFD-1" target="VnQOhvCHOg2HLJ8q1UFD-8">
          <mxGeometry width="50" height="50" relative="1" as="geometry">
            <mxPoint x="240" y="320" as="sourcePoint" />
            <mxPoint x="477" y="381" as="targetPoint" />
          </mxGeometry>
        </mxCell>
      </root>
    </mxGraphModel>
  </diagram>
</mxfile>
